<?xml version="1.0" encoding="UTF-8"?>
<!DOCTYPE svg PUBLIC "-//W3C//DTD SVG 1.1 Tiny//EN" "http://www.w3.org/Graphics/SVG/1.1/DTD/svg11-tiny.dtd">
<svg baseProfile="tiny" height="30px" version="1.1" viewBox="0 0 30 30" width="30px" x="0px" xmlns="http://www.w3.org/2000/svg" xmlns:xlink="http://www.w3.org/1999/xlink" y="0px">
<path d="M29.516,15.484C29.516,26.239,25.754,30,15,30C4.244,30,0.484,26.239,0.484,15.484  C0.484,4.729,4.244,0.969,15,0.969C25.754,0.969,29.516,4.729,29.516,15.484z" fill-opacity="0.2"/>
<path d="M29.516,14.515c0,10.756-3.762,14.517-14.516,14.517c-10.756,0-14.516-3.761-14.516-14.517  C0.484,3.762,4.244,0,15,0C25.754,0,29.516,3.762,29.516,14.515z" fill="#0F0F0F"/>
<linearGradient gradientTransform="matrix(1 0 0 -1 -76 -96)" gradientUnits="userSpaceOnUse" id="SVGID_1_" x1="91" x2="91" y1="-96.9688" y2="-123.9783">
<stop offset="0" style="stop-color:#6E6E69"/>
<stop offset="0.0786" style="stop-color:#63635E"/>
<stop offset="0.2736" style="stop-color:#4B4B46"/>
<stop offset="0.4839" style="stop-color:#3A3A35"/>
<stop offset="0.7138" style="stop-color:#32322D"/>
<stop offset="1" style="stop-color:#32322D"/>
</linearGradient>
<path d="M15,28.063c-10.258,0-13.547-3.291-13.547-13.548C1.453,4.258,4.742,0.969,15,0.969  s13.547,3.289,13.547,13.546C28.547,24.771,25.258,28.063,15,28.063z" fill="url(#SVGID_1_)"/>
<linearGradient gradientTransform="matrix(1 0 0 -1 -76 -96)" gradientUnits="userSpaceOnUse" id="SVGID_2_" x1="91" x2="91" y1="-97.0596" y2="-111.2087">
<stop offset="0" style="stop-color:#FFFFFF"/>
<stop offset="1" style="stop-color:#FFFFFF;stop-opacity:0"/>
</linearGradient>
<path d="M15,1.937c10.089,0,13.432,3.198,13.54,13.063  c0.002-0.165,0.007-0.315,0.007-0.484C28.547,4.258,25.258,0.969,15,0.969S1.453,4.258,1.453,14.515  c0,0.169,0.007,0.319,0.009,0.484C1.568,5.135,4.911,1.937,15,1.937z" fill="url(#SVGID_2_)" fill-opacity="0.25"/>
<rect fill="none" height="30" width="30"/>
</svg>
