<?xml version="1.0" encoding="UTF-8"?>
<!DOCTYPE svg PUBLIC "-//W3C//DTD SVG 1.1 Tiny//EN" "http://www.w3.org/Graphics/SVG/1.1/DTD/svg11-tiny.dtd">
<svg baseProfile="tiny" height="30px" version="1.1" viewBox="0 0 30 30" width="30px" x="0px" xmlns="http://www.w3.org/2000/svg" xmlns:xlink="http://www.w3.org/1999/xlink" y="0px">
<linearGradient gradientTransform="matrix(1 0 0 -1 -76 -96)" gradientUnits="userSpaceOnUse" id="SVGID_1_" x1="91" x2="91" y1="-125.4619" y2="-95.7471">
<stop offset="0" style="stop-color:#000000"/>
<stop offset="1" style="stop-color:#000000;stop-opacity:0"/>
</linearGradient>
<path d="M15.013,30l-0.496-0.284c-0.276-0.159-6.814-3.954-10.077-9.489  c-1.274-1.808-1.888-4.426-1.888-8.175C2.552,3.267,5.925,0,14.999,0c9.076,0,12.449,3.267,12.449,12.052  c0,3.546-0.544,6.058-1.712,7.909c-3.166,5.657-9.94,9.591-10.229,9.755L15.013,30z" fill="url(#SVGID_1_)" fill-opacity="0.4"/>
<path d="M26.453,12.081c0-8.19-2.969-11.056-11.454-11.056c-8.484,0-11.451,2.865-11.451,11.056  c0,3.43,0.522,5.924,1.749,7.669c3.167,5.371,9.716,9.132,9.716,9.132s6.787-3.896,9.881-9.423  C25.982,17.732,26.453,15.325,26.453,12.081" fill="#0F0F0F"/>
<linearGradient gradientTransform="matrix(1 0 0 -1 -76 -96)" gradientUnits="userSpaceOnUse" id="SVGID_2_" x1="91" x2="91" y1="-96.7476" y2="-125.1486">
<stop offset="0" style="stop-color:#6E6E69"/>
<stop offset="0.011" style="stop-color:#63635E"/>
<stop offset="0.2485" style="stop-color:#51514C"/>
<stop offset="0.4877" style="stop-color:#3D3D38"/>
<stop offset="0.7276" style="stop-color:#32322D"/>
<stop offset="1" style="stop-color:#32322D"/>
</linearGradient>
<path d="M26.453,12.081c0-8.19-2.969-11.056-11.454-11.056c-8.484,0-11.451,2.865-11.451,11.056  c0,3.43,0.522,5.924,1.749,7.669c3.167,5.371,9.716,9.132,9.716,9.132s6.787-3.896,9.881-9.423  C25.982,17.732,26.453,15.325,26.453,12.081" fill="url(#SVGID_2_)"/>
<linearGradient gradientTransform="matrix(1 0 0 -1 -76 -96)" gradientUnits="userSpaceOnUse" id="SVGID_3_" x1="91" x2="91" y1="-97.4946" y2="-108.9468">
<stop offset="0" style="stop-color:#FFFFFF"/>
<stop offset="1" style="stop-color:#FFFFFF;stop-opacity:0"/>
</linearGradient>
<path d="M14.999,2.988c8.174,0,11.22,2.673,11.433,10.188  c0.014-0.354,0.021-0.718,0.021-1.096c0-8.19-2.969-11.056-11.454-11.056c-8.484,0-11.451,2.865-11.451,11.056  c0,0.37,0.009,0.723,0.021,1.07C3.788,5.655,6.835,2.988,14.999,2.988z" fill="url(#SVGID_3_)" fill-opacity="0.25"/>
<rect fill="none" height="30" width="30"/>
</svg>
